<svg id="svg23" xmlns="http://www.w3.org/2000/svg" viewBox="0 0 306.4 238.5"><style>.st0{fill:#d9dadb}.st1{fill:#fefefe}.st2{fill:#e30027}.st3{fill:#fcb900}.st4{fill:#0e0e0e}.st5{fill:#b1b3b4}</style><g id="Layer1000"><path id="path2" class="st0" d="M176.8 47c.9.1 4.9.1 7.7.5 7.6 1.2 9 2.8 14.4 7.2l6.9 6.1c1.1 1.1 1.3.9 2.6 1.7 2 1.2 5 4.6 6.5 6.5.7.8 1.2 1.5 1.9 2.4.7.9 1.1 1.6 1.9 2.4l49.7-3.3c-.6 1.8-10.1 16.4-11.3 18.4l-22.8 36.5c-1 1.5-1.9 3-2.9 4.6-1 1.7.4 3.1-1.5 5.4-2.2 2.8-.9 0-2.9 4.6-.6 1.5-2.1 3.6-2.5 5 2-.4 1.5-3.1 13.5-2.9 4.1.1 11.5-1.8 15.1 0 1.1.5 1.2 1.5 2.8 1.1.4-.1 2-1.1 2.6-1.4 4-1.9 9.8-2.6 14.1-1.7 1.1.2 2.2.5 3.3.8 1.2.3 2.3.9 3.3 1.1 1.7-1.2 1.2-1.6 4.1-2.2 2.9-.7 11.6-1.4 14 .4 1.2.9.9.7 2.6.7.1 2.9.7 5.1.8 8 .4 6.5 3.3 52.7 2.9 54.9-.4 1.9-.4 2.1-.3 4.2-2.7.1-2.7 1.8-6.9 2.2-1.6.2-7.6.6-9 .4-3.2-.5-3.8-2.3-6.9-.7-4.3 2.3-10.9 3-15.6 1.8-2.4-.6-5.5-2.1-7.7-.6-2.1 1.4-5 1.6-7.7 1.7-9.4.5-7.7-1-10.1-1.1-.7 0-1.6.1-2.1.4-1.4.7-1.5 1-3.1 1.4-3.3.8-13.9 1.4-17.1.5-2.1-.6-.8-1-3.8-.8-2.5.2-1.8.7-3.4 1.3-2.4.9-5.4.8-8.1 1-6.7.4-6-1-8.2-1.1-3.9-.2-8 2.1-16.4 2.4L165.5 236c-.4-.2-.1 0-.4-.3l-.4-.4c-.3-.4-.4-.5-.6-.8-.5-.6-.8-1-1.3-1.6l-7.6-9.7c-.9-1.1-1.7-2.1-2.5-3.2-1.9-2.4-2.6-3.2-5.7-2.9-1.6.2-2.5 1.6-6.7 1.9-3.6.2-7.3.5-10.9.6-2.9.1-6.5-2.5-9.7-.5-2.6 1.6-6.6 1.4-9.9 1.6-1.8.1-3.9-.3-5.2.1-2 .5-3.3.5-5.4.6-1.6.1-4 .4-5.4.3-2.7-.2-4.7-1.9-7.1-.8-.9.4-.6.6-1.9 1-2.3.6-8.3 1.2-10.6.8-2.6-.4-2.6.1-5.1.3-7.3.4-14.8 1.1-22.1 1.2-2.9.1-4.5-1.4-7.8-.6-.9.2-.9.5-2 .8-2.1.6-13.6 1.6-16.1 1.2-.8-.1-1.6-.4-2.3-.6-1.3-.3-1.6-.1-2.9-.3-3.8-16.5-7.2-33.3-10.7-50-.5-2.3-2.5-10.6-2.6-12.6 0-.2.7-4.5.8-4.5.7-.6.9-.3 1.7-.9.7-.5.8-.8 1.8-1.1 3.4-1 12.7-1.7 15.2-.1.9.6.6.7 1.9.7 4.7 0 3.2-1.3 6.6-2.1 2.6-.6 7.9-1.1 10.6-.8-.4-2.6-2.3-4.4-1-7.3 1-2.1 3.7-2.3 6-3.2 1.2-2.1.6-2.7 2.9-3.7 1.5-.7.8-.7 1.6-1.5 1.5-1.6 4.9-2.2 7-2.9.9-.3 4.2-1.1 4.9-1.6 1.2-.7.1-3.6 8-5 3-.5 2.9 1.4 4.8 1.7 1.4.2 3.9-1.1 5.4-1.3-.6-1.2-1.2-1.7-2-2.8-.7-.9-1.3-1.7-2.1-2.7L55.6 96.3c-1.8-2.4-7.3-8.7-8.3-10.8C59.1 85 71.2 83.8 83 83c2-.1 4-.2 5.9-.4 2.3-.2 2.5-1.7 4.1-2.4.6.5.5.8 1.3 1.2 5.7-6.5 16.6-10.1 25.6-9.1 3.3.4 4.5.6 7.4 1.5 2.9.8 4.4-1.4 5.9-2.6 2.8-2.3 5.5-9.6 4-13.3-3.6 0-2.7.4-5.3-1.9-1-.8-1.1-1.3-2.2-1.9-.1-4.4 2.1-2.1-.7-7-1.3-2.2-.4-1.4.2-3.1.4-1.2-.1-.6-.3-1.6-.2-.9.2-.9.4-1.8-1.4-.6-2.7 0-3.1-1.6-.8-2.9.6-4.7 1.5-7.5.7-2.1.7-1.7 1.7-3.4l-.6-2.6c-3.1-.3-3.8-1.1-4.6-3.6-1.1-3.4-.1-4.1.7-6.9.7-2.7 1.4-5.2 3.4-6.7 1.3-.9 2.6-2 4-2.5C131.9.3 137 3 140 4c2 .7 8.9-.7 11.5-.8 1.8-.1 9.3 1.1 11.2 1.6 3.9 1 7.5 1.1 8.6 4.4 3.3-.4 4.8 2.2 6.9 3.9.3.3.7.5.9.7.2.2.5.7.8 1.1 1.3 1.5 2 2.6 1.4 5.2-.6 2.5.9 3.2 1.4 5.4.4 2.1.1 4.7-1 6-2.4 2.7.8 4.7-.9 8.4-1.1 2.3-1.7.5-2.6 4.6-.5 1.5-.9 1.4-1.4 2.5zM121 19.5c0 .8 1.1 4.7 1.4 5.3 1.1 1.9 2.2 2.1 3.8 2.9-.6 1.2-3.1 8-3.1 9.1 0 1.1.3 1.7.5 2.7.6 2.8 2 1.9 2.6 3.6.4.9-.4 1.3-.4 3.3 0 .4 1.9 3.6 1.9 3.6 0 1.4-.7 2.4-.7 3.8 0 2 3.3 4.1 4.7 5.3.9.8 1.9 1.1 3.2 1.1 0 3.4-.5 4.2-2 6.9-.5.9-.4 1.3-1.2 1.9-5.2 4.3-1.7 1.4-13.6.6-8-.6-16.5 2.5-22.5 7.2-2.1 1.6-3.1.3-4.5 1.5-1.7 1.3-1.2 1.8-4.2 1.8l-11.2.9c-1.5.1-4 .5-5.5.5-4.1 0-12.7.8-17.1 1.2-1.8.1-6.5-.4-7.7 1.2-.4.5-.7 1.6-.5 2.3.2.7.7 1.4 1 1.9.5.6.9 1.1 1.4 1.7l5.3 6.7c6.9 9.2 14.4 17.9 21.3 27.1.7 1 2.4 2.5 2.5 3.7-2.1 0-2.8-2.3-6.2-1.6-2.9.6-6.8 1.4-8.5 4-.9 1.5-.6 1.3-2.4 1.9-2.3.7-8.8 2.4-10.4 4.2-2.2 2.5-2.3 1.2-3.4 2.8-.7 1-.7 2-1.9 2.5-1.9.8-4 1.2-5.2 3.2-1.4 2.3-1.2 4-.6 6.6-1.3 0-1.8.1-2.7.2-.9.1-1.9 0-2.8.1-4.3.6-5.5 2.2-6.6 2.3-1.1.2-1.8.3-2.5-.1-4.1-2.2-11.8-1.4-15.6-.5-3.5.8-1.7.4-4.2 1.8-1.4.7-2.8 1.1-2.9 3.1-.2 6.5-1.4 1 .5 10l11.5 54c1.5 7.1 1.3 4.4 6.3 5.7 4.3 1.1 6.8.1 10.9.1 2.9 0 5.3-.4 7.9-1 3.4-.9 3.2-1.3 7.5-.2 1.7.4 10.9-.5 13.7-.5l8.6-.5c1.7 0 3.7-.8 5.3-.7.8 0 1.4.5 2.4.4.9 0 1.6-.2 2.9-.2 5.4.1 9.6-1.9 10.1-1.9 1.1 0 1.7.2 2.7.4 3.9.9 5.8.7 10 .3.9-.1 2.5-.3 3.3-.5 2.2-.6 1.2-.2 3.2 0s5.2-.4 7.4-.5c1.7 0 3.4-.4 4.8-.9.7-.2.9-.6 1.5-.7 3.7-.9 6.2 1.7 14 .5 2.4-.4 5.1-.1 7.4-.6 6.4-1.3 5.4-3.4 8.3.3l7.6 9.7c1.1 1.3 4.7 6.6 5.9 7.1 2.6 1.2 3.6-1.4 4.6-3l8.3-13.3c.5-.8 1.3-1.9 1.5-2.8 4.4 0 7.6-.9 11.2-2 1.2-.3 3.3-.5 4.5-.1l4.3 1.1 7.4-.5c4 0 6.3-2.2 8.6-2.2.2 0 4.2 1.4 5.8 1.5l13.4-1c1.4-.3 2.8-.5 4-1.3 1.5-1 1.8-.4 3.5 0 5 1.2 6 .3 10.7.3 1.5 0 3.9-.5 5.2-1.1 2.8-1.2 1-1.6 4.8-.6.8.2 1.6.4 2.5.6 5 1.1 7.2.8 12-.3 1.1-.2 2.3-.5 3.2-.8 2.3-.8 2.2-1.5 4.4-.7 1.3.5 3.6 1.1 4.9.9 2.3-.3 5-.2 7.5-.5 3.4-.4 4.5-1.4 5.9-2 1.7-.7 2.9-.4 3.3-2.5.3-1.2-.1-.6-.1-1.7 0-2.6.8-2.6.5-7.2l-2.9-50.2c0-1.4-.1-2.4-.3-3.7-.1-.6-.3-1.1-.4-1.6-.1-.7 0-1.4 0-2.1-.3-3.9-2.2-2.5-4.3-3.8-.8-.5-2-.8-3.1-1-2.2-.5-5-.2-7.2 0-2.6.2-4.6.2-7.1 1.1-1.4.5-1.4 1.4-2.5 1.1-.5-.1-1-.4-1.5-.5-.7-.2-1-.2-1.8-.4-6.2-1.6-8.1-1-13.9.2-2.6.6-3.9 1.2-5.9 2.3-.5-.3-1-.7-1.5-.9l-3.9-.9c-1.3-.2-4.9.4-6.6.4-1.6 0-2.9.5-4.3.5-2.2 0-6.6-.2-9.4.5.7-1.6.8-1.7 2-3.1 1-1.1 1.3-1.7 1.7-3.6.4-2 .1-2.2 1.2-4l24.2-38.9c1.8-3 11.6-17.9 12-19.5.3-1.4-.3-2.6-1.9-3-.8-.2-8.2.2-9.8.4-3.2.5-6.6.3-9.9.6-3 .3-6.6.6-9.9.7l-19.7 1.4c-1.2-2.3-3.6-5-5.5-6.8-1.4-1.4-2.6-2.8-4.2-3.9-.9-.6-1.7-.9-2.5-1.6-4.3-4-8.7-7.9-13.5-11.2-2.3-1.6-9.4-3.1-13.4-3.1 0-.5.1-.7.2-1 .4-.8-.1 0 .7-.8 3.4-3.1 1.8-7.4 1.8-8.8 0-1.3 2.6-3.3 2-7.5-.2-1.6-.4-2.9-1-4-1.3-2.6-.2-1.3-.2-3.8 0-4.6-4.7-8.1-8-10.7-.7-.5-1.3-.8-2.1-1-2.4-.6-2.3-2.6-5.9-3.4-1.8-.4-3.3-.8-5-1.2-2.7-.7-5.4-.9-8.1-1.3-2.4-.3-3.3-.4-5.8-.1l-6.1.7c-4.3.4-6.5-2.9-10.4-1.3-2.4 1-1.9 2.2-2.8 3.9-.3.6-3.7 2.3-5.3 4.8-.7 1.5-3.3 9.4-3.3 10.7z"/><path id="path4" class="st1" d="M79.8 189.1c.2 4.1.3 8.5.7 12.6.2 2.3.9 10.5.6 12.4l-5.6.3-1.4-25 5.7-.3zm14.8-.9c1.4-.1 4.4-.5 5.6-.1l1.4 24.8-6.9.4c-1.1-1.4-1.6-4.2-2.2-6.1l-6-18.5 4.9-.2c.4 1.3.8 3.8 1.9 4 2 .4 1.3-2.8 1.3-4.3zm-1.2 2.1c-1.3-3.1-10.4-31.7-11-32.5-1.2.1-4.6 1.4-5.8 1.8-3.6 1.2-2.7.6-5.3 2.4l3 53.8 8.3-.6-2-39.9c.1.2.1.3.2.5 2 6 12.1 37.6 12.9 38.8l9.3-.6-3.2-57.2c-1.2-.2-7 .1-8.2.4l1.8 33.1zm91.5-7.1l6.4-.4c.4 1.4.8 10.1.8 12.1.4 9.5-3.7 13-12.1 13.6-4 .3-8.5.6-12.5.6-.2-3.6-1.5-23.4-1.2-25l6.5-.3c.1 4.1.5 8.2.7 12.3.3 7.5-.8 6.9 6.3 6.6 8.6-.4 5.2-9.9 5.1-19.5zm-12-22.3c5.9-.2 9.6-1.7 9.9 5.3.2 4.7.4 9.8.8 14.5.4 4.8.5 10 .8 14.8.4 6.4-3.5 6.1-9.1 6.2l-2.4-40.8zm-6.5 49.6c1.8.1 5.1-.2 7-.4 10.8-.9 20.6.9 20.1-16.4-.1-4.4-.5-9.1-.8-13.6-.5-7.6.1-19.6-4.4-24.6-.9-1-2.9-2.2-4.7-2.7-3.9-1.2-16.1-.2-20.2.2l3 57.5zm-133 6.1l-11.3.8-5.1-24.8 6.5-.4c.3 2.5 2.7 14.6 3.4 16.2l1.6.1c1-1.7 1.6-13.7 1.9-16.6l5.6-.4c-.3 3.5-1.9 23.6-2.6 25.1zm-15.1-55.3c-1.6 0-3.2.1-4.8.2-.8.1-1.6.1-2.4.1-1.6 0-1.6 0-1.8.4l5.1 24.3c2.2 10.8 4.3 21.6 6.8 32.4l13.6-.8 5.6-57.9-8.3.5-4.4 46.1-9.4-45.3zm105.8 25.3l6.3-.4c1.2 2.1 2.7 15.6 3.8 16.3 1.7 1.1 2-1.3 2.1-2.5l1.3-14c1.1-.5 4.3-.4 5.7-.5l-2.5 25.3-11.5.6-5.2-24.8zm1.3-31.3c-1.6 0-3.2.1-4.8.2-.8.1-1.6.1-2.4.1-1.6 0-1.6 0-1.8.4l11.9 56.7 13.6-.8 5.5-58-8.3.5-4.3 46.2-9.4-45.3zm109 25.1l-2.5 25.2-11.2.6c-.6-1.2-5.3-24.1-5.1-24.8l6.1-.3c1.5 3.1 2.2 14.7 3.9 16.3 1.9.2 1.8-1.3 2-3 .2-2.5 1-12.7 1.4-13.8l5.4-.2zm-17.8-30.1c-1.6 0-3.2.1-4.8.2-.8.1-1.6.1-2.4.1-1.6 0-1.6 0-1.8.4l5.1 24.3c2 9.9 5.1 23 6.8 32.4l13.6-.8 5.5-57.9-8.3.5-4.3 46.2-9.4-45.4zm40.6 28.8l6.6-.4c.2 3.8.5 7.5.6 11.2.1 3.8.5 6.7 3.6 7.9 3.5 1.3 7-.3 7.9-3.1.9-2.6 0-7.6 0-10.5l6-.4c.8 2.2 1.1 11.5-1.3 15.4-2.3 3.7-6.7 5.4-12.8 4.8-5.2-.5-8.1-3.8-9.3-8.4-1-3.5-1.3-12.5-1.3-16.5zm17.4 4.1c0 2.9.8 7.7.3 10.3-.3 1.5-1 2.6-2.4 3.1s-3.5.4-4.6-.3c-2.5-1.7-1.8-5.5-2.2-8.9-.3-3.2-.5-7.2-.6-10.4-.1-3.4-.3-7.1-.6-10.5-.2-2.7-1-7.7.5-9.7 1.7-2.3 6-2.5 7.5-.1 1.1 1.7 1.2 7.2 1.3 9.8l8.6-.5c-.1-6.4-.4-12.3-4.1-15.9-4.1-4.1-10.6-4.3-15.5-2.5-11.5 4.1-6.8 18.6-6.8 30.6 0 4.5.3 14.5 1.4 18.3 1.5 5.2 4.8 8.3 10.8 8.9 5.4.6 10.9-1 13.8-5.6 2.9-4.7 1.6-11.3 1.4-17.3-2.7 0-7.8.4-8.3.5l-.5.2zm-69-77.2c-2.4 0-2.8-.8-3.4-2.7-.7-2-1.8-2.2-2.6-3.8 1.7 0 1.4-.2 2.5.8.6.5 1 .8 1.7 1.4 2.1 2.1 2.1 2.4 1.8 4.3zm2.6 25.6c2.7-1.4 6.8-5.3 7.2-9.3-1 .4-2.3 2.3-5.5 3.8.2-.5.4-.6.9-1.1 3.6-3.7 7.9-10.5 4.5-15-1.7-2.2-2.5-1.6-5.1-2.7.6-.7 4.9-1.5 2.1-5.7-1.4-2-2.5-2.9-4.8-4.4.5-.5 1.5-.5 2.3-.6 3.1-.4 5.5-1.2 7 .5 4.7 5.4 4.1 11 3.9 17.6-.3 6.5-1.1 7.5-1.2 9.5 1.5-.3 2.8-2.2 3.8-2.4.2 2 .1 5.4 0 7.6 0 1.7 0 1.8-1 2.7-2.9 2.7-3.4 2.3-6.8 4.2-1.5.8-3.1 1.9-4.9 2.5 1.2 1.1 4.6.7 6.1.5-.4.7-.3.6-1.9 1.3-1.7.8-5.4 1.8-7.2 1.3 1-4.3 1.2-5.8.6-10.3zM187 103.2c.3 1.2-.2 3.9 1.1 5.3.8.9 2.4 2.1 4.3 2.2 1.3.2 1.5.7 2.6 1.2 0 0 .1-.2.1-.1l.1-.1.7-.8c3.5-3.8 9.8-3.7 11.4-2.7-.9.6-7.5.6-10.3 5 .9 1.3 5.7 4.1 8.6 12.1 3.2 8.8 1.5 11.1.9 17.8 4.6.4 12.2-3.6 13.4-6.1-1.2.5-5.9 2.2-7.2 1.4 2.9-1.9 9.3-4.2 11.1-6.4 1.4-1.6.4-13.5-.4-15.5-.9 1.3-.9 4.2-2.5 5 .4-10.5 2.9-16.7-3.6-25.4-1-1.4-1.5-1-3.5-1-5.2.2-10.2 1.2-14.8 2.7-3.6 1.1-6.1 2.3-9.3 3.9-.8.5-1.8 1.1-2.7 1.5zM53.3 190.6c-1.2 1.6-.8 1.1-.7 4.4.1 2.4.5 14 1.2 14.6 1.7.5 12.4-.4 15.2-.5l.2 5.8-22 1.1-1.3-25 7.4-.4zm1.7-29.2c-1 0-1-.3-1.8-.5-2.2-.5-3.5 2.2-6.6-1.3l-4.1.2 3.2 57.3c.1 0 .1.1.2.1l12.1-.5c3.9-.1 8.5-.3 12.5-.7l-.5-8.4-15.6.8-.8-16.4 12.2-.8-.6-8.4-12.3.7-.9-15.9c2.8-.1 5.6-.4 8.4-.5 1.5 0 2.9-.2 4.3-.2 3.5-.1 2.9 0 2.8-1.3-.9.1-1.2.6-2.3.6-3.5.1-4.2-3.6-4.6-4.5-2.5.6-1.9-.1-3.6-.5-.7-.2-1 .2-2 .2zm125.1-85.9c-1.7 1.9-8.3 14.5-4.8 16.3 1.3.7 3.2 1 4.7 3.2.6.9.6 1 1.6 1.5 7.8-5.6 18.6-10.4 31.1-9.4.3-5.7-3.4-10.9-6.5-13.8-.4-.4-.7-.8-1.2-1.2-2.9-2.6-3.9-2.5-6.3-2.2-1.1.2-2.7.4-3.7.8.3 1.1 1.2 1.4 2.6 1.3 1.8-.1 1.6-.6 2.4-1.4 5.1 1 10.7 8.9 11.4 15.1h-5.2c.4-1.8 1.1-2.8.8-5.1-.8-6.1-6.8-5.6-10.9-6.6.6 1 2.7 1.8 3.8 5.2.8 2.4.7 5.3-.1 7.5-.6-.6-2.1-7.9-6.1-10.2-4.6-2.7-13 1.9-13.6-1zm-58.3 16.7c2 1.3 2.2 1.6 3 4.2.6 1.8 1.3 3.6 1.8 5.4 3.9-.8 17.3-1 17.6-1 1-.2 8.2-2.9 10.5-3.4 2.7-.6 7.9.1 11-.2-.2-2-2.2-4.7-.2-11.9.3-1.1 1.2-2.5 1.2-3.5-1.2.9-1.6 2.9-2.2 4.4-5.1-2-9.6.3-13.9 1.9-.7.3-1.5.6-2.1.8-1.2.4-1.2.6-2.1 1-1.3.5-8.2 1.9-9.9 2.1-1.7.2-3.8 0-5.2.8-1 .6-2.8 1.8-4.1 1.9 0-5.5-.3-8.6.6-14-.6.2-.2 0-.6.4 0 0-.5.6-.5.7-.3.5-.5.8-.8 1.3-1.6 2.5-3.5 5.9-4.1 9.1zm172.7 84.9l1.3 24.9-6.5.4-1.3-25 6.5-.3zm-6.5 26.5c1 .4 7.5-.2 9.1-.4.2-1.3-.5-12.2-.6-14.6l-1-14.2c-.1-4.6-.4-10-.8-14.5-.3-3.4-.4-11.8-.9-14.2l-9 .5 3.2 57.4zm-174.4-16.4l1.4 25-6.6.3-1.3-25 6.5-.3zm-6.6 26.5c.1 0 .1.1.2.1s.1.1.2.1c.9.2 1.1 0 2 0l6.9-.3c0-4.7-.5-9.9-.8-14.7l-2.7-42.9c-6 .3-5.8 1.7-9 1.7l3.2 56zm35.8-80.7c.3-1.2 1-1.9 1.5-2.8-1.2.3-2.1.8-2.9 1.4-1.2.9-1.1 1.4-.6 2.9.7 1.8 2 4.5 3.2 5.4 2.6-.6 4.3-1.7 7.4-1.8.2.4.1-.2 0 .3v.1l-.1.3v.1c2.2.1 2.9-.9 4.3-1.2-.5.9-2.9 2.2-4.4 2.6-3.3.8-2.7-1.2-6 1 .1 1.9.8 2.9 1.8 3.8 2 0 5.9-1.9 9.1-2-.7.8-.7.1-1.2 1 2.5.2 2.9-1 4.5-1.1-4.5 4.7-8.9.9-9.2 3.8 1.6.1 9-.3 10.1-1 2.3-1.3-1.4-1.3 2.3-2.8 2.7-1.1 2.3-1.5 3.4-2.1 1.8 2.6.7 5 3.7 4.9-.6-1.7-1.9-3.4-2.7-5.4-.7-1.7-1.3-4.4-2-5.9-.6.6-.4 1.3-.7 2.2-.3-.3 0 .3-.4-.5l-.5-2.4c-.5-4.1.6-5.1.4-7.6-.1-1.2-.3-2.6 0-3.6-1-.5-1.6-.8-3-.2-2.1 1.1.7 2.8-12.6 7.8-1.8.9-3.9 2.3-5.4 2.8zm16.7 51.6l1.4 25-6.6.3c-.4-4.1-.4-8.4-.7-12.6-.2-2.6-.9-10.3-.6-12.4l6.5-.3zm-6.4 26.6c1 .2 7.9-.2 9.2-.4l-3.4-57.5-9 .5 3.2 57.4zm44.9-28.8l6.6-.3 1.4 25-6.6.4-1.4-25.1zm.2 26.5l9.2-.6-3.4-57.4-9 .5 3.2 57.5zm45.7-29l6.5-.4c.3 1 1.6 23.7 1.4 25-1.7 0-5.1.6-6.5.2l-1.4-24.8zm.3 26.3l9.2-.5-3.3-57.5-9 .5 3.1 57.5zM126.1 105.1c-.8.2-1.9.9-2.8 1.3-1.2.5-1.9.8-3.1 1.2-1.1.4-6.7 1.6-6.8 1.6-1.6.2-5.5 1.3-6.4 2.2-.1 1.3 1.4 4.2 1.7 5.7 1.5 1.2 2.3.4 5.3-.5l27.7-9.1c4-1.3 2.9-1.5 7.6 1.4.4.2.8.5 1.2.7.4.1 1 .2 1.5.6-.6.6-25.7 8.4-29 9.6l.1.7c1.6.3 24.3-7.9 28.2-9l2.4-.8c-.3-.7-1-.9-2.6-1.8-1.9-1.2-7.6-5.2-8.3-5.4-1.5-.2-6.6.3-8.6.4-3.1.2-5.4 0-8.1 1.2zm-74.2 48.5v-.2c-.9-.2-3.1.3-3.5 1.4.9.2 3.1-.4 3.5-1.2zm93.6-125.9c-.6-.9-1.1-.7-2.5-.8-1.1-.1-2-.2-3-.4 1.3 1 3.5 1.4 5.5 1.2zm-51 90c-.3 1.5.1 2.3 1.8 1.8.1-.9-.1-1.7-.6-2.3-.7.1-.9.2-1.2.5zm-45 25.7c.1 0 .2 0 .2.1s.2.1.2.1.3.2.4.2c1-.1 1.9-.2 2.2-1.1l-.6-1.7c-1.7.3-3.2.8-2.4 2.4zM66 133.3c.2.1-.1.5 1.5 0l3.8-1.3c1-.5.3.1.6-.6-1.1-.8-1.9-.2-3.2.2-1.3.4-2.4.5-2.7 1.7zm70-106.6c2.2-.6.5-1.1 3.4-.6-.8-.3-1.2-1.1-1.6-2.1-.9-.3-1.6-.2-2.5-.2l-1 3 1.7-.1zm23.1 8.9l2.9-1.9-.9-5.2c-.8.1-2.5 1.5-3 2.1l1 5zm-116.3 113c1.2.8 1.9.2 3.4-.3 1.3-.4 2.3-.8 3.6-1.2l.1-.8c-.2-.7-.5-.9-.7-1.5-1.2.1-2.9.8-4 1.2-1.8.5-3.1.6-2.4 2.6zm53.7-31c1.4.7 3.7-.5 5.2-1 1.7-.5 3.4-1.2 5.1-1.6v-.9l-.6-1.7c-1.5.2-4.4 1.4-5.9 1.8-.9.3-2 .6-2.9.9-1.4.6-1.2 1.1-.9 2.5zm-18.7 15c2.2.7 5.1-.9 7.2-1.5 6.4-2 15-5.3 20.8-6.9-1-1-2.3-.2-3.8.3l-10.5 3.2c-2.3.8-4.6 1.6-6.8 2.3l-5.2 1.7c-1.1.3-1.3.1-1.7.9zm89.2-29.3v1.1c1.7-1.7 3.4-1.6 6.4-2.6 1.2-.4 1.2-.5 1.1-1.9 0-3.4-1.8-2.4-4.1-1.6-.6.2-1 .3-1.6.5-1.7.6-2.1 1.4-1.8 4.5zm-55.3-5.1c-.9-.1.4 2.6.4 2.7 1.3.2 8.3-2.2 9.7-2.9.2-1.3-.2-1.5-.4-2.6-1.4-.6-1.8 0-4.8 1-.7.2-1.5.5-2.3.8-1.2.4-2.1.4-2.6 1zm57.7 37.6c.4.7 1.2 2.6 1.2 3.4l-1.5.1-1-3.4 1.3-.1zm3.2 9.8c-.4-.7-1.8-2.7-1.6-3.3l1.3-.2 1.5 2.8c.7.9 0 .4.8.6-1.9-3.9-2.5-4-4.4-9.1-1.3-3.4-2.2-6.8-2.7-10.8-.5-.3-1.1-.9-1.7-1 .6 4.3.7 7.7 2 11.8.7 2.3 3.2 8.8 4.8 9.2zM140 40.4l.2 1s-4-3.1-6 .2c.9.7 1.2.5 1.6 1.5 1.5 1.4 3.7.9 3.4 3.5-2.7-1.3-5.4-3.4-7.5-.6l.4.6c1.2-1 5.1 1.6 6 2.3 0 0-.1.1-.2.1l-1.1.4c-1.5.6-1 2.4-.4 3-.4-1.8 1.1-1.7.9-1.3 0-.3-.2-.8-.2-1.1l1.9-.1c.2-.9 1-1.2 1.2-2.3l-.2-.7c-.5-1 0-.6-.3-1.7V45c0-.1 0-.1-.1-.2-.3-.6.8-.4-.8-.4l.5-2.4c1.9.5 1.3-1.4 1.2-2 .1.2 0-.1.2.5-.4.2.5.8-.7-.1zM95.3 88.9c1-.4.5-.1 1.5-1.4 2.2-2.9 7.7-6.4 11.4-7.8 5.6-2 10.8-2.1 16.5-.7 1.2.3 1.3.3 1.7-.8-5.1-2.6-14.2-1.3-19.2.5-3.6 1.3-7.9 4.1-10.3 6.7-.5.6-.8.9-1.4 1.5-.8 1-.7 1.1-.2 2zM134.5 38c.2-.2.2.5.1-.6 0-.3-.2-.9-.2-1.2 1.1.3.7.4 1.5.7.7.3 1.3.6 1.8 1 .5.3.4.3.8.7.6.6.1.3.9.7.4-1.3-.1.6.1-1.2.1-.6.3-1.6.4-2 .3-2 .4-1.3.2-3.6-.9.3-1.5.7-3-1.1-.1.5 0 .4 0 .5-.1.6.1.2-.2.6-1.1-.7-2.9-2.7-4.6-2.6-.4 2.5-1.7 4.3-2.2 6.3 2-.1 3.7 0 4.4 1.8zm14 68.1c2.1.3 5.4-1.5 7.5-2 2.3-.6 6.8.1 9.4-.2.4-.6.3-.8.8-1.3l.2-2.4c-1.5-.5-10.5-.3-12.1.2-1.5.5-8.8 2.6-9.5 3.3.6 1 2.7 2 3.7 2.4zm42.5 7.7c.7 1.1 2.5 1.7 5.2 5.2 4.1 5.3 6.5 13.6 6 20.5l-.5 4.1c.1.6-.1.1.2.5 1.4-2.4.3-8.8.7-10.1.5-.5 1.5-.9 2.4-.9.2 2.1.2 3.9-.1 6.1-.1.8-.3 1.8-.5 2.6l-.4 1.7c0 .6-.1.3.1.6 2.8-5.5 1.3-14.7-1.1-19.9-1.3-2.9-3.2-5.3-4.9-7.2-.8-.9-2.2-1.9-3.3-2.7-1.1-1-2.8-2.4-3.8-.5zM53.2 141.9c0 .1.1.1.1.2.4 1.7 4.7-.2 5.5-.5l17.5-5.8c2.1-.7 4-1 6-1.6 1.9-.6 3.8-1.2 5.8-1.9l8.6-2.9c.5-.2 1-.3 1.5-.5l1.3-.7s.1-.1.1-.2v-.8c-2.4.1-14.8 4.6-18.6 5.9-2.7.9-3.9-.5-6.8-.8-1.1-.1-1.4.6-2.8 1.1-2.7.9-3.8 1.4-6.4 1.7-1 .1-2.2.6-3.2.9-2 .7-4.1 1.3-6.1 2-1.9.8-4.7 1.2-2.5 3.9zM140 32.5c.2 2.3.1 1.6-.2 3.6-.1.4-.3 1.4-.4 2-.2 1.8.4-.1-.1 1.2l.6 1.2c1.2.9.3.3.7 0-.2-.6-.1-.4-.2-.5.1.6.7 2.4-1.2 2l-.5 2.4c1.6.1.5-.1.8.4 0 .1 0 .1.1.2v.2c.3 1.1-.2.7.3 1.7l.2.7c-.1 1.1-1 1.4-1.2 2.3l-1.9.1c.1.3.2.8.2 1.1.2-.4-1.3-.5-.9 1.3.1.7.4.9.9 1.3 1 .9.5.5 1.6.6.8 0 1.6-.1 2.2-.6.6-1.1 1.4-2 1.9-3.1s.9-2.4 1.2-3.6c.9-4.1-.1-6-.1-8.8 3.4-2.6 6.3-4 5.9-8.2-4.5-1-2.4-2.7-5.8-1-1.3.7-.5.3-.9.9-.3.4-.6.7-1 1-.4.2-2 1.2-2.2 1.6z"/><path id="path6" class="st0" d="M73.4 146.6c-1.1-.2-2.5-1.5.4-2.4l20.6-6.7c3-1 5.5-2.5 5.8-.5l.1 1.8c-4.3 1.8-9.2 3-13.7 4.6-1.9.6-12.6 4.5-13.7 4 0-.9-.1-.3.5-.8zm-1.7-3.6c-.5-.8.1-.2-.2-.8-.8-1.9-2.4-1.4 3.8-3.4 3.1-1 21.9-7.6 23.4-7.3l.4 2.8c-2.8 1-26.2 8.8-27.4 8.7zm-18.5-1.1c.1 1.4 4.5 14.6 5 15.6 1.2.2 6-1.4 7.1-2 .2-1.4-1.2-4.8-1.7-6.2-.3-.9-.7-2.1-1-3.1-.7-2-1.1-1-1.7-2.4l3.1-.9c.2 2.7-.9.5 1.1 6.2.5 1.5 1.3 4.7 2.1 5.6.7.4 18.1-5.4 18.8-6-.2-1.2-.7-.5-1.3-1.7 2.2-.9 5-1.7 7.3-2.4 1.2-.4 2.4-.9 3.6-1.2 1.4-.4 2.7.3 4.2.6 1.4.3 13.8-4 14.7-4.8-.1-.7-.3-1-.6-1.4-1.9-.3-3.6.5-5.4.8-2.8.5-2.6-.6-4.8-1.4-1.7-.6-1.8-2.1-2.4-3.9-.6-1.7-1.2-3.4-1.6-5 0 .1-.1.1-.1.2l-1.3.7c-.5.2-1 .3-1.5.5l-8.6 2.9c-2 .6-3.9 1.3-5.8 1.9-2.1.7-3.9.9-6 1.6l-17.5 5.8c-.9.3-5.1 2.2-5.5.5-.1-.4-.2-.4-.2-.5zM167 103.3c-.4.6-.6 2.3-.7 3.2-.2 1.1-.1.7 0 1.5 0 .1.2.7-.3 1l-11.1 3.7 2.1 6.3c2.4 0 8.6-3 11.3-3.5 3.1-.6 2.3 2.5 5.1 1.5 1.8-.6 4.2-1.5 6.1-1.6 0-1-3.6-10.2-4.6-14.6-.2-.9.2-.6-.6-1 .1 1.4.2 1.5-1.1 1.9-2.9 1-4.6.9-6.4 2.6l.2-1zm-43.9 17.3c.4 1.1.6 2.7 1 3.6.7 1.4.8 1.8 1.3 3.5 2.5.4 14.3-4.6 15.6-4.3.8.2 2.1 1.6 4.9-.4-.1-1.6-1.7-1.8-2.3-3.6-1.5-4.2 3.3-6.5 5.3-2.9 1.1 1.9.3 3.1.4 5.3 1.1 0 5.1-1.1 5.9-1.5-.6-.5-.7-.2-1.6 0-.8-2-2.6-6.6-2.4-8.7-3.8 1.1-26.5 9.3-28.1 9zm-14.4-3.4l1.8 5.6 3.9-.6c.5-1.6 1.2-6.3 5.7-4.7 3.9 1.4-1.2 3 9.7-.7l14.5-4.8c1.9-.6 5.7-2.3 7.7-1.8-.4-.4-1-.5-1.5-.6-.4-.1-.9-.4-1.2-.7-4.7-2.9-3.6-2.7-7.6-1.4l-27.7 9.1c-3 1.1-3.8 1.9-5.3.6zm32.5-63.6c2.1-.4 6.3-2.2 8-3.5l5.9-5.4c1.9-1.8 1.4-1.9 2-5.8-1-.6-.1-.1-.7-.5l-.7-.4c-.3.3-1.9.9-2.6 1.3-4.7 2.7-5.8 5-7 5.5.5-2.5.2-3.1.2-5.4 2.6-2.5 4.7-2.1 5.6-7-.1 0-.1-.2-.2-.1 0 0-.8-.4-1.3-1.7l-.4-.9c.4 4.2-2.5 5.7-5.9 8.2.1 2.8 1 4.7.1 8.8-.3 1.3-.8 2.5-1.2 3.6-.4 1.3-1.2 2.1-1.8 3.3zM100 128c.7 1.2 2.1 5.7 2.6 7.4 1.4 0 12-3.7 13.6-4.4.1-1.5-1.4-4.1-1.6-6.3-.1-1.2.4-.9-.3-1.8-.4 1.1.8.5-2.5 1.6-3.3 1.3-8.7 3.4-11.8 3.5zm92.4-17.4c-1.9-.1-3.4-1.3-4.3-2.2-1.3-1.4-.8-4.1-1.1-5.3-1.7 1-5.2 3-6.2 4.2-.7 1.5 1.8 8 4.6 9.1 6-3.2 2-2.8 4.9-4.5 1.1-.5 1.5-.5 2.1-1.3zm-76.9 31.8c-2 1-8.5 2.9-11.4 3.9-1.3.5-2.3.9-2.8.2l-.2-.8c-.9 1 .6 4.4 1.2 5.5 1.5.2 14.4-4.1 14.8-4.7.5-1.1-.3-2.1-.6-3.3-.5-2.1-.1-2.3-2.2-2.1.6.5 1 .6 1.2 1.3zm66.1-46c-1-.4-1-.6-1.6-1.5-1.6-2.2-3.4-2.5-4.7-3.2-3.5-1.8 3-14.3 4.8-16.3-5.3 1.6-10 11.3-8.1 19.3 1.3-.2 1.3-.2 1.6-.8 1 1.2.5.6 1.9 1.4.9.6 2.4 3.4 4.1 2.6.2-.1.8-.6.9-.7.7-.4.7-.3 1.1-.8zm-33.1 9.7c.5.8 2.7 2 3.6 2.5 2.5 1.3 2.7 1.8 4.2 1.3 2.5-.9 6.8-2.5 9.3-3l.7-4.3c-.6.5-.5.7-.8 1.3-2.6.4-7.1-.3-9.4.2-2.2.6-5.4 2.3-7.6 2zm-14.2 28c-1.3.8-5.3 1.8-7.3 2.5l-5.4 1.8c-1.4.3-.7-.1-1.7-.5.1.7.4 1.2.6 1.9.9 2.5.3 2.1 8-.3 7.9-2.5 8-1.2 6.6-5.2-.5-1.4-.3-2.1-1.9-2 .9.8 1.1.1 1.1 1.8zm-37.8-16.5c.2 1.4 1 2.5 1.3 4.5 1.7.2 9.3-2.5 10.5-3.2 0-.5-1-4.4-1.5-4.9v.9c-1.7.4-3.4 1.1-5.1 1.6-1.5.6-3.8 1.9-5.2 1.1zm61.6-87.1c.5-.5 2.3-1.9 3-2.1l.9 5.2-2.9 1.9-1-5zm-2.5 7.4l.7.4c.6.4-.2-.1.7.5 1 0 4.6-1.5 5.2-2.1.2-.2 1.3-1.8 1.5-2.2.8-1.3-.3-5.8-.4-6.1-.2-.4-1.8-1.4-2.3-1.5-.8-.1-2.8 2-4.5 2.9l1.7 7.1-2.6 1zM49.5 143.4c.4 2.4 1.5 3.5 2.1 6.3.3 1.3 1.5 5.5 2.2 6.2.8 0 2-.5 2.5-1.1-.1-1.3-1.4-4.7-1.8-6.1l-1.6-5.1c0-.1 0-.1-.1-.2l-.3-.7c-.3.9-1.2 1-2.2 1.1-.1-.1-.3-.2-.4-.2 0 0-.2 0-.2-.1 0 0-.1 0-.2-.1zm66.6-21.7l-.9-.7c0 1.4.2 2.7 1 3.3 4.8 3.3 7-1.6 6.4-3.2 0-.1-.8-1.6-.9-1.8 0 0-.1.1-.1.2s-.1.1-.1.1c-1.1 1.1-1.1-.2-3.1.2-.7.2-1.9 1.3-2.3 1.9zm16-75.2c.3.5-.2.2.6.7.5.4 1.3.4 2.2 1.3-.6.5.3 0-1.3.3-.3 1.3-.7 2.3-.5 3.8.4.4 1.8 1.9 2.4 2.2 1 .5 2.9 0 3.6-.6-1.1-.1-.6.3-1.6-.6-.5-.4-.8-.7-.9-1.3-.7-.6-1.2-2.5.4-3l1.1-.4s.1-.1.2-.1c-1.1-.8-5-3.3-6.2-2.3zm2.4-8.5c-.7-1.8-2.4-1.9-4.4-1.9.5-2 1.8-3.8 2.2-6.3-1.9.3-1.4.5-2.8 3.9-1.1 2.7-2.1 2.1-.3 4.5 1.9.1 1.9-.9 5.3-.2zm71.1 68c.3-1.9.3-2.2-1.9-4.3-.7-.7-1.1-.9-1.7-1.4-1-.9-.8-.8-2.5-.8.8 1.6 1.9 1.8 2.6 3.8.7 1.9 1.1 2.7 3.5 2.7zm-69.7-62.9c-.4-1-.8-.7-1.6-1.5 2-3.4 6-.2 6-.2l-.2-1-.6-1.2c-.8-.4-.3-.1-.9-.7-.4-.4-.3-.3-.8-.7-.5-.3-1.1-.7-1.8-1l.7 2.3c-2.3.5-4.3 1.4-4.8 3.2 1.8.2 2.2.4 4 .8zM42.8 148.6l.7 2.2c1.4.1 6-1.5 7.2-2.1l-.8-2.4-.1.8c-1.3.4-2.3.8-3.6 1.2-1.6.5-2.2 1.1-3.4.3zm55 4.1c1.1.1 2.9-.5 3.6-1.2-.3-2.4-2.5-3-4.2-2.5-.4 1.3.2 2.6.6 3.7zm38.2-126l-1.7.2 1-3c1-.1 1.6-.2 2.5.2-.3-1.8-1.2-1.3-3.8-.2-2.1.9-2.6 3.9-.9 4.2 1 .2 2.3-.8 2.9-1.4zM51.9 153.6c-.5.8-2.6 1.4-3.5 1.2.5-1 2.6-1.6 3.5-1.4-.3-1.6-6.1-.3-3.4 3.2 1.2.1 3.3-.6 4-1.2 0-.9 0-1.4-.6-1.8zM105 123c1.1.4 2.6-.4 3.7-.6l-.3-1.1c-1-.3-2.9.4-3.3.7-1 .7-.1 1-.1 1zm-5.4 1.4c1 .5 3.1-.6 3.4-1-.2-.1.5-.7-1.8.1-1.6.6-1.1.2-1.6.9zm40.8 16c-.3-.7-.5-1-.6-1.9-.1-1.2 0-1.3-1.3-1.6-.1 2 .7 2.8 1.9 3.5z"/><path id="path8" class="st2" d="M156.5 76.1c.1.1 0 .5 1.2.1 4.3-1.7 16.1-5.3 19.6-5.4l-19.5 10.1c-5.4 2.4-10.2 4.7-16.2 6.2-1.1.3-1.6.4-2.5 1l-2.2 1.6c3.1.2 12.4-3.2 15.6-4.5 15.2-6.3 26.1-13.4 44-16.6 10.7-1.9 8.4-.7 13.4 5 6.6 7.5 5 12.8 5.9 14.3.6 1 1.4 1.5 2.1 2.9.8 1.5.3 2.8 1 4 .7 1.1 1.3 1.7 2.1 3 1.1 1.8 2.4 5.1 2.9 7.2.3 1.4.2 3 .6 4.5l1.9 8.5c1.3-2.7 0-12.2-.6-15.3-2.2-11.3-7-20-13.6-28.9l-3-3.5c-.5-.6-.4-.5-1-1.2-3.3-3.3-7.6-4.5-12.4-4.4-3.4 0-3.6-.2-8 .1-9.1.6-18.6 3.4-25.9 8.1-1.5.8-3.7 2.5-5.4 3.2zm-65.7 48.8l2.2-.6c-.6-3.2-1.4-2.7-1.4-6.9 0-2.5-4.7-7.1-5.8-10.5-.6-1.8-.8-5.3.5-6.6.4.3 8.4 11.7 10.1 12.2 1.6-.1 5.9-1.8 7.5-2.4 1.7-.6 1.4-1.2 3.2-1.8.6-.2 1.1-.4 1.8-.6.6-.2 1.3-.3 1.8-.8-.3-1.2-4.1-3.5-5.2-4.2-1.5-1-4-3.2-5.1-4.2-2.6-2.5-7-6.9-8.6-10.1-3 1.3-10 10.7-9 17.8 1 5.8 8.5 9.9 8 18.7zM183.1 59c-11.5.4-23.7 8.1-33.2 14.3-2.8 1.8-14.8 11.4-16.8 12l-.7-6.5c-.5.9-.4 2.2-.5 3.3-.5.2-1.7 1-2 1.3l.1 7.3c3.2-1.3 18.3-12.1 22.5-14.9 8.7-5.9 14-9.7 24.9-12.5 7.7-2 14.6-1.6 22.8-.8-.4-.8-2.6-2.6-3.4-3.2-.5-.4-.9-.6-1.4-1l-5-3.9c-3.5-2-8.6-2.1-10.6-2.6-.9-.3-2.2-1.3-3.1-1.3l3.6 3.9c.8 1 2.9 3.2 2.8 4.6zM139 145s.1 0 .1.1l2.9 1.6c1.5.7 2.3.6 4.1.3-.9-.7-1.1-1-1.6-1.8-3.8.8-4.4-1.1-5.5-.2zm76.9-1.8l3.1.6c.5-1.1 1.6-2.5 1.9-3.7-1.2.7-2.7 2.3-5 3.1zm-87.7 5.7c1.3.8 1.6 1.4 3.6 1.1-.7-.6-3.1-1.8-3.6-1.1z"/><path id="path10" class="st0" d="M153.2 10.1c1 .9 2.4 3.2 1.4 4.8-1.1-.2-.7-.5-1.1-1.5-1.1-2.7-3.9-1.6-5.1-2.8.7-1.7 3.7-1.5 4.8-.5zm-7.7-2.4c.9 1.4 1.3.8 1.2 3.4 4.3 1.5 4.9 5.9 5.5 7.3 3.2.5 5.1 1.9 7.3 4.3 3.1-.9 4.4-2.3 9.2 1.5 1 .8 1 1.4 1.8 2.5 0 0 .1-.2.1-.1.2.4-.1-.3.8-.7l.7 1.5c.5.8.7.5 1.1 1.3.8 1.2.7 2.1 2.7 2 3.3-.1 3.4-3.5 2.1-5.9-2.7-5.1.6-5-1.1-7.3-1.3-1.7-3.2-2.9-4.9-4.5-.6.5-1.2 2.5-3.6 3.1-3.8.9-7.2-2.1-6.8-3 .3-.7 1.6.2 2.2.4 2.2.7 3.9-.2 3.8-2.4-.1-1.2-.6-1.3-1.8-1.5-3.5-.8-4.5-1.1-8.4-1.7-8.7-1.3-3.9-.7-11.9-.2zm21.3 25.4c.4 2.8.2 1.7-2.4 5.1-1.1 1.4-2.7 3.3-4.1 4 1.1 2.2 3.3 4 6 3.8.9-.1 2.8-.8 3.8-1.1 1.3-.4 2.7-.6 4.1-1 .3-1.8.8-4 2.2-5 2-1.5.2-2.6.4-5.5-1.1 0-1.5-.2-2.5-.5-2.5-.5-2.4 1.9-7.5.2zM128 21.7c2.4.3 3.5-1 7.1-2.2.6-.2 1.1-.3 1.6-.8s.2-.1.4-.5c-1.5-.9-3.7-1-4-2.9-.4-2.5 1.9-2.6 3.3-3.5-.4-1-1.1-1.8-1.6-2.6-.9.2-4.7 2.2-5.6 4.7-.4 1.3-.8 2.7-1.2 4.1-.8 2.2-.7 1.3 0 3.7z"/><path id="path12" class="st3" d="M148.3 24.1c1-.4 2.7.6 3.7 1 1.2.5 3.1 1 3.8 1.8-3.2-.1-6.3-.1-7.5-2.8zm-2.1-5.7c-.6-.3-5.7-3.3-6.3-4 2.1.3 3.4.3 4.2 1.3.7 1 1.4 1.7 2.1 2.7zm-3.9-7.2c-.9-1.3-3.1-2.7-4-3.9.6.2 2.1.8 2.6 1.4.4.4 1.3 2.1 1.4 2.5zm-1.2 2.5c-1.6-.5-4.2 0-5.5 1 5.7 2.9 1.4.4 6.1 3.8 1.8 1.3 2.3.5 4 2.3 1 1.1 1.3.6 2.1 1.8-2.1 0-2.1.5-3.7.9 1.6 1.2 5 3.7 7.1 4 1.1.2 1.4-.1 2.2 0 1.2.2 1.6 1.4 5.2-2.1-.6-1.1-2.2-2.6-3.3-3.4-1.7-1.3-3-1.3-5.4-1.3-.5-3.1.2-3.7-1.9-5.8-.8-.8-1.2-1.1-2.1-1.7-1.5-.9-1-.4-1.8-2.1-2-4.3-4.9-5.1-9.3-6.3.3.5 2.4 3 3.2 4.5.9 1.7 1.9 3.4 3.1 4.4zm20.5 10.8s.1 0 .1.1l3.1 1.7c1.4 1.1.8 1.9 1.4 3.7 1.5 1 3.6 1.7 5.3.7-.4-1.2 0-.7-.9-1.1-3.7-1.9-2-2-3.1-3.3-.7-.7-4.2-3.2-5.9-1.8z"/><path id="path14" class="st3" d="M135.4 78.4c-.7-.4 0 0-.4-.3-.5-.3 0-.1-.5-.4-.8 1.2-.6 3-.5 4.6 1.8-.4 8-5.3 9.5-7 1-1.1 1.7-1.8 2.3-3.3l-7.4 5c-.8.4-2.1 1.1-3 1.4zm31.9 17.7l3.2-.7c-.8-4.8-1-6 .4-11.1l.9-2.2c.2-1.3.1-.4-.1-.8-.4.7-.3 1.2-1.2 1.7-.4-.8-.3-1-1-1.7-1.4 1-2.3 4.4-2.7 6.5-.5 2.8-.2 5.6.5 8.3zm-70.4-5.6c1.2 3.5 3.9 1.8 7.1.1.7-.4 1-.5 1.6-.8l5.9-3.4c.9-.6 2.1-1.1 3.1-1.7l4.4-2.6c.8-.5.7-.6 1.4-1 1.2.1 2.9.7 3.7.3-1.9-2.4-12.4-1.2-16.4.6-1.1.5-2.2 1.1-3.2 1.6-2.2 1.2-6.3 4.8-7.6 6.9zm81.4 11.1c.5 1.8.6 2.8 1.8 3.9l4.3-2.7c6.4-4 8.2-4.1 14.4-6.6.2-1.7-.3-2.2-1.6-2.8-.8-.3-.8-.2-1.8-.3-.7 0-1.4 0-1.9-.4 4.8-2.4 10.1-2.9 15.3-3.3 1.7-.1 4.7.5 6 0-.3-.3.2-.1-.4-.3-2-.7-9.1-.3-11 0-6.2.9-13.3 3.7-18.2 7-1.9 1.3-5.8 3.9-6.9 5.5zm-9.1 24.5c0 2.5 1.4 7.5 2.4 9.4 13.4 2.1 25.9-6.2 27-6.3.6 1.3 1.4 3.4 1.1 5.3-3.6 1.3-5.3 1.1-10 3.4-2.5 1.2-6.6 3.1-8.6 5 1.3.7 9.1-1.8 10.5-2.4 1.6-.6 2.9-1.4 4.4-2.3l3.7-2.6c.9-.1.4 3 .5 3.9.4-.5.4-.8.5-1.8.1-1.6-.3-4.3-.6-5.9-.7-4-2.9-9.3-5.5-12.2-2-2.2-2.2-2.6-4.7-4.2-.5.3-.7.4-1.2.8l-3.5 2.3c-1.6 1.1-1 .3-1.9 1.9-1.6 3.5-10.7 3.8-14.1 5.7z"/><path id="path16" class="st3" d="M164.7 222.8c.8-1.5 2.3-4.1 3.3-5.4-1.1-.1-2.8-.4-3.7-.3-1.4.2-1.9.5-3.6.7l4 5zM62.1 92.1c1.5 2 19.7 25.5 22.9 29.1-1-4.3-6.2-7.9-7.3-14.2-.8-4.6.6-8.9 2.6-12.7.6-1.2 1.6-2.3 2.1-3.4l-20.3 1.2zm161.3-10.9c.6 2 2.4 4.7 3.3 7 3.5 8.5 5.4 16.3 5.4 25.9.7-.5 15.4-24.4 16.5-26.1l5.4-8.9-30.6 2.1z"/><path id="path18" class="st4" d="M142.3 11.2c-.1-.4-1-2.2-1.3-2.5-.5-.6-2-1.2-2.6-1.4.8 1.3 3 2.6 3.9 3.9zm25.8 124.7l1 3.4 1.5-.1c0-.8-.8-2.7-1.2-3.4l-1.3.1zM146.2 18.4c-.7-1-1.4-1.7-2.1-2.7-.7-1-2-1-4.2-1.3.6.7 5.7 3.8 6.3 4zm2.1 5.7c1.2 2.7 4.3 2.7 7.5 2.7-.7-.7-2.5-1.3-3.8-1.8-1.1-.4-2.7-1.3-3.7-.9zm.2-13.5c1.1 1.2 4 0 5.1 2.8.4 1 0 1.3 1.1 1.5 1-1.6-.4-3.9-1.4-4.8-1.2-1-4.2-1.2-4.8.5zm16.2 212.2l-4-5c1.7-.1 2.3-.5 3.6-.7.8-.1 2.6.2 3.7.3-1 1.3-2.5 3.9-3.3 5.4zM18.3 161.3l9.4 45.3 4.4-46.1 8.3-.5-5.6 57.9-13.6.8c-2.4-10.7-4.5-21.6-6.8-32.4L9.3 162c.1-.5.2-.4 1.8-.4.8 0 1.6 0 2.4-.1 1.7-.1 3.2-.2 4.8-.2zm24.3-1.5l4.1-.2c3.2 3.5 4.4.8 6.6 1.3.8.2.7.5 1.8.5.9 0 1.3-.3 2.1-.2 1.7.3 1.1 1 3.6.5.4.9 1.1 4.6 4.6 4.5 1.1 0 1.4-.5 2.3-.6.1 1.4.7 1.2-2.8 1.3-1.5 0-2.8.2-4.3.2-2.8.1-5.6.4-8.4.5l.9 15.9 12.3-.7.6 8.4-12.2.8.8 16.4 15.6-.8.5 8.4c-4 .4-8.5.7-12.5.7l-12.2.5c-.1 0-.1-.1-.2-.1l-3.2-57.3zm61.3-2.2c3.2 0 3-1.4 9-1.7l2.7 42.9c.2 4.8.7 9.9.8 14.7l-6.9.3c-.8.1-1.1.2-2 0-.1 0-.1-.1-.2-.1s-.1 0-.2-.1l-3.2-56zm-12.3-.3c1.2-.3 7-.6 8.2-.4l3.2 57.2-9.3.6c-.7-1.2-10.9-32.8-12.9-38.8-.1-.2-.1-.4-.2-.5l2 39.9-8.3.6-3-53.8c2.5-1.9 1.7-1.2 5.3-2.4 1.3-.4 4.6-1.7 5.8-1.8.5.8 9.7 29.4 11 32.5l-1.8-33.1zm33.8-2l9.5 45.4 4.3-46.2 8.3-.5-5.5 58-13.6.8-11.9-56.7c.1-.5.2-.4 1.8-.4.8 0 1.6 0 2.4-.1 1.5-.2 3-.3 4.7-.3zm24.5-1.5l9-.5 3.4 57.5c-1.3.2-8.3.6-9.2.4l-3.2-57.4zm-97.9-.4v.2c.5.4.5.9.6 1.8-.7.6-2.8 1.3-4 1.2-2.8-3.5 3.1-4.8 3.4-3.2zm111.3-.3c4.1-.5 16.3-1.4 20.2-.2 1.8.5 3.8 1.7 4.7 2.7 4.5 5 3.9 17 4.4 24.6.3 4.4.6 9.2.8 13.6.5 17.3-9.3 15.5-20.1 16.4-1.9.1-5.1.5-7 .4l-3-57.5zm111.3 30.1l.4-.2c.5-.2 5.6-.6 8.3-.5.2 6 1.4 12.6-1.4 17.3-2.9 4.6-8.3 6.2-13.8 5.6-6-.6-9.3-3.7-10.8-8.9-1.1-3.8-1.4-13.8-1.4-18.3.1-12-4.7-26.5 6.8-30.6 4.9-1.7 11.4-1.5 15.5 2.5 3.6 3.6 4 9.5 4.1 15.9l-8.6.5c0-2.6-.2-8.1-1.3-9.8-1.5-2.4-5.8-2.3-7.5.1-1.4 2-.6 7-.5 9.7.2 3.4.4 7.1.6 10.5.1 3.2.3 7.2.6 10.4.3 3.4-.3 7.2 2.2 8.9 1.1.8 3.2.9 4.6.3 1.4-.5 2.1-1.6 2.4-3.1.5-2.6-.2-7.4-.2-10.3zM195 151.4l9-.5 3.4 57.4-9.2.6-3.2-57.5zm21.6-1.1l9.5 45.4 4.3-46.2 8.3-.5-5.5 57.9-13.6.8c-1.7-9.4-4.7-22.5-6.8-32.4l-5.1-24.3c.1-.5.2-.4 1.8-.4.8 0 1.6 0 2.4-.1 1.5-.1 3-.2 4.7-.2zm-118.8 2.4c-.4-1.1-1-2.4-.6-3.7 1.7-.4 3.9.1 4.2 2.5-.7.7-2.5 1.3-3.6 1.2zm143.3-3.9l9-.5 3.3 57.5-9.2.5-3.1-57.5zm-109.2 1.3c-2.1.3-2.3-.4-3.6-1.1.4-.8 2.8.4 3.6 1.1zm152.9-3.7l9-.5c.5 2.3.6 10.8.9 14.2.4 4.5.7 9.9.8 14.5l1 14.2c.1 2.4.8 13.2.6 14.6-1.7.2-8.1.7-9.1.4l-3.2-57.4zm-235 0l.8 2.4c-1.2.6-5.8 2.2-7.2 2.1l-.7-2.2c-.7-2 .7-2.1 2.3-2.6 1.1-.4 2.9-1.1 4-1.2.3.6.6.8.8 1.5zm89.4-1.3c0-.1-.1-.1-.1-.1 1.1-.9 1.6.9 5.6.3.5.8.7 1.1 1.6 1.8-1.9.3-2.6.3-4.1-.3l-3-1.7zm-86.8-2.3l.3.7c0 .1 0 .1.1.2l1.6 5.1c.5 1.4 1.7 4.8 1.8 6.1-.6.5-1.7 1.1-2.5 1.1-.7-.7-1.9-4.9-2.2-6.2-.5-2.8-1.7-3.9-2.1-6.3-.8-1.6.7-2.1 2.3-2.3l.7 1.6zm63.1-.4c-.3-.7-.7-.8-1.2-1.2 2.1-.1 1.7 0 2.2 2.1.3 1.2 1 2.2.6 3.3-.4.6-13.3 4.8-14.8 4.7-.6-1.1-2.1-4.5-1.2-5.5l.2.8c.5.7 1.4.2 2.8-.2 2.9-1.1 9.4-2.9 11.4-4zm100.4.8c2.3-.8 3.8-2.5 5-3.1-.3 1.2-1.4 2.6-1.9 3.7l-3.1-.6zm-162.7-1.3c-2.1-2.7.6-3.2 2.6-3.8 2-.7 4.1-1.3 6.1-2 1-.3 2.2-.9 3.2-.9 2.7-.2 3.7-.8 6.4-1.7 1.4-.5 1.7-1.2 2.8-1.1 2.8.3 4.1 1.7 6.8.8 3.8-1.3 16.3-5.8 18.6-5.9v.8c.3 1.7 1 3.3 1.6 5 .6 1.8.6 3.3 2.4 3.9 2.3.8 2 1.9 4.8 1.4 1.8-.3 3.5-1.1 5.4-.8.2.4.5.7.6 1.4-.9.8-13.3 5.1-14.7 4.8-1.4-.3-2.7-1-4.2-.6-1.2.3-2.4.8-3.6 1.2-2.3.8-5.2 1.6-7.3 2.4.6 1.3 1.1.5 1.3 1.7-.7.6-18.1 6.4-18.8 6-.8-.9-1.6-4.1-2.1-5.6-1.9-5.7-.8-3.5-1.1-6.2l-3.1.9c.6 1.4 1 .5 1.7 2.4.3 1 .7 2.1 1 3.1.5 1.5 1.9 4.9 1.7 6.2-1.1.6-5.9 2.2-7.1 2-.6-.7-5-14-5-15.4zm86.7-3.4c.1.9.2 1.2.6 1.9-1.3-.7-2-1.5-1.8-3.5 1.2.3 1 .4 1.2 1.6zm-5.6-4.4c0-1.7-.2-1-1-1.8 1.6-.1 1.5.6 1.9 2 1.4 4.1 1.2 2.8-6.6 5.2-7.7 2.4-7.1 2.8-8 .3-.3-.8-.6-1.2-.6-1.9 1 .4.3.8 1.7.5l5.4-1.8c1.9-.7 5.9-1.7 7.2-2.5zm-68.3-.8c.3-1.2 1.4-1.3 2.7-1.7 1.3-.4 2.1-1 3.2-.2-.4.7.3.1-.6.6l-3.8 1.3c-1.6.5-1.3 0-1.5 0zm103.2-7.2c3.3-1.9 12.4-2.2 14.1-5.6.9-1.7.3-.9 1.9-1.9l3.5-2.3c.5-.4.7-.5 1.2-.8 2.5 1.6 2.7 2 4.7 4.2 2.7 3 4.8 8.2 5.5 12.2.3 1.6.6 4.2.6 5.9 0 1-.1 1.3-.5 1.8-.1-1 .4-4.1-.5-3.9l-3.7 2.6c-1.6.9-2.8 1.7-4.4 2.3-1.4.5-9.2 3.1-10.5 2.4 2-1.9 6.1-3.8 8.6-5 4.7-2.3 6.4-2.1 10-3.4.3-1.8-.4-3.9-1.1-5.3-1.1.2-13.6 8.4-27 6.3-1-2-2.4-7-2.4-9.5zm3.4 19.5c-1.6-.5-4.1-7-4.8-9.2-1.3-4.1-1.4-7.4-2-11.8.6.1 1.2.7 1.7 1 .5 3.9 1.5 7.4 2.7 10.8 1.9 5.1 2.4 5.1 4.4 9.1-.8-.2-.2.3-.8-.6l-1.5-2.8-1.3.2c-.2.6 1.2 2.6 1.6 3.3zm-94.8-13c.4-.8.6-.6 1.6-.9l5.2-1.7c2.3-.7 4.5-1.5 6.8-2.3l10.5-3.2c1.5-.5 2.8-1.3 3.8-.3-5.8 1.6-14.4 4.9-20.8 6.9-2 .6-4.9 2.2-7.1 1.5zm21.8-8.2c.5-.6 0-.3 1.6-.9 2.3-.8 1.6-.2 1.8-.1-.3.4-2.4 1.5-3.4 1zm.4 3.6c3.1-.2 8.5-2.3 11.8-3.4 3.3-1.1 2.1-.6 2.5-1.6.7.8.3.6.3 1.8.1 2.2 1.6 4.7 1.6 6.3-1.6.7-12.2 4.4-13.6 4.4-.5-1.7-1.9-6.2-2.6-7.5zm42.8 5c1.5-.5 3.6-1.9 5.6-2.6 13.2-4.9 10.5-6.7 12.6-7.8 1.3-.7 1.9-.3 3 .2-.3 1-.1 2.4 0 3.6.2 2.5-.9 3.4-.4 7.6l.5 2.4c.4.8.1.3.4.5.3-.9.1-1.6.7-2.2.7 1.5 1.2 4.1 2 5.9.8 2 2.1 3.7 2.7 5.4-3 .1-1.9-2.3-3.7-4.9-1.2.6-.8 1.1-3.4 2.1-3.7 1.5 0 1.5-2.3 2.8-1.1.7-8.5 1.1-10.1 1 .3-3 4.8.9 9.2-3.8-1.5.1-2 1.3-4.5 1.1.5-.9.5-.1 1.2-1-3.2.1-7.1 2-9.1 2-1-.9-1.7-1.9-1.8-3.8 3.2-2.2 2.6-.2 6-1 1.5-.4 3.8-1.7 4.4-2.6-1.5.3-2.1 1.3-4.3 1.2v-.1l.1-.3v-.1c.1-.4.2.1 0-.3-3.1.1-4.8 1.2-7.4 1.8-1.2-.9-2.5-3.6-3.2-5.4-.6-1.5-.7-2.1.6-2.9.8-.6 1.7-1.1 2.9-1.4-.6.7-1.4 1.3-1.7 2.6zm-26.7-11.3c.4-.6 1.6-1.7 2.4-1.9 2-.4 2 .9 3.1-.2l.1-.1c0-.1 0-.1.1-.2.1.2.8 1.7.9 1.8.6 1.7-1.6 6.5-6.4 3.2-.9-.6-1.1-1.9-1-3.3l.8.7zM105 123s-.9-.3.1-1.1c.3-.3 2.2-.9 3.3-.7l.3 1.1c-1.2.3-2.6 1.1-3.7.7zm-10.5-5.3c.4-.3.6-.4 1.2-.5.5.6.7 1.4.6 2.3-1.7.5-2.2-.3-1.8-1.8zm12.3-3.6c.4.5 1.4 4.3 1.5 4.9-1.2.8-8.8 3.4-10.5 3.2-.3-2-1.1-3.1-1.3-4.5-.3-1.4-.5-1.9.9-2.5.9-.4 2-.7 2.9-.9 1.5-.5 4.5-1.7 5.9-1.8l.6 1.6zm95.1 29.9c-.2-.3-.1.2-.2-.5l.5-4.1c.5-6.9-1.8-15.2-6-20.5-2.8-3.5-4.5-4.1-5.2-5.2 1-1.9 2.7-.5 3.8.4 1.1.8 2.5 1.9 3.3 2.7 1.7 1.8 3.6 4.3 4.9 7.2 2.4 5.2 3.9 14.4 1.1 19.9-.2-.3-.2 0-.1-.6l.4-1.7c.2-.8.4-1.8.5-2.6.3-2.1.3-3.9.1-6.1-.8 0-1.8.4-2.4.9-.4 1.4.7 7.9-.7 10.2zM167 103.3c-.3-3.2.1-4 1.7-4.5.6-.2 1.1-.4 1.6-.5 2.3-.8 4.2-1.8 4.1 1.6.8.4.4 0 .6 1 .9 4.5 4.5 13.6 4.6 14.6-1.8.1-4.3 1-6.1 1.6-2.8.9-2-2.1-5.1-1.5-2.7.5-9 3.5-11.3 3.5l-2.1-6.3 11.1-3.7c.4-.3.3-1 .3-1-.1-.8-.2-.4 0-1.5 0-1 .2-2.7.6-3.3zm25.4 7.3c-.6.7-.9.8-2.1 1.4-2.9 1.6 1.1 1.2-4.9 4.5-2.8-1.1-5.3-7.6-4.6-9.1 1-1.2 4.5-3.2 6.2-4.2.9-.3 1.9-1 2.8-1.5 3.2-1.6 5.7-2.8 9.3-3.9 4.6-1.4 9.6-2.5 14.8-2.7 2.1-.1 2.5-.4 3.5 1 6.5 8.7 4 14.9 3.6 25.4 1.6-.8 1.6-3.7 2.5-5 .9 2 1.8 13.9.4 15.5-1.8 2.1-8.3 4.5-11.1 6.4 1.3.7 5.9-1 7.2-1.4-1.2 2.5-8.8 6.5-13.4 6.1.6-6.7 2.2-9-.9-17.8-2.9-8-7.8-10.8-8.6-12.1 2.8-4.4 9.4-4.5 10.3-5-1.6-1-7.9-1.1-11.4 2.7l-.7.8s-.1.2-.1.1l-.1.1c-1.2-.6-1.5-1.1-2.7-1.3zm-43.9-4.5c-1-.5-3.1-1.5-3.6-2.4.7-.7 8-2.8 9.5-3.3 1.6-.5 10.6-.7 12.1-.2l-.2 2.4-.7 4.3c-2.5.5-6.7 2.1-9.3 3-1.5.5-1.7 0-4.2-1.3-.9-.4-3.1-1.7-3.6-2.5zm-57.7 18.8c.5-8.8-7-12.9-7.9-18.7-1-7.1 5.9-16.5 9-17.8 1.6 3.2 5.9 7.6 8.6 10.1 1.1 1.1 3.6 3.2 5.1 4.2 1.1.7 4.9 3 5.2 4.2-.5.5-1.2.6-1.8.8-.7.2-1.2.4-1.8.6-1.8.6-1.5 1.3-3.2 1.8-1.6.5-6 2.2-7.5 2.4-1.6-.5-9.6-11.8-10.1-12.2-1.4 1.3-1.1 4.9-.5 6.6 1.1 3.4 5.8 8 5.8 10.5 0 4.1.8 3.7 1.4 6.9l-2.3.6zm20.9-26.7c.5-.6 1.4-.7 2.5-1 .8-.3 1.6-.5 2.3-.8 3-1 3.4-1.5 4.8-1l.2-.3c.4.2.6.2.9.9.9 1.8 2.4 7.4 2.4 9.2.6-.4.6-.1 1.2-.1 2.7-1.2 5-1 8.2-1.1 1.9-.1 7-.6 8.6-.4.7.1 6.4 4.2 8.3 5.4 1.6 1 2.2 1.1 2.6 1.8l-2.4.8c-.2 2 1.6 6.7 2.4 8.7.9-.2 1-.5 1.6 0-.8.4-4.8 1.5-5.9 1.5-.2-2.2.6-3.4-.4-5.3-2-3.6-6.8-1.4-5.3 2.9.7 1.8 2.3 2 2.3 3.6-2.8 2-4.1.6-4.9.4-1.4-.3-13.1 4.7-15.6 4.3-.5-1.7-.6-2.1-1.3-3.5-.5-1-.6-2.5-1-3.6l-.1-.7c3.3-1.2 28.4-9 29-9.6-2-.5-5.8 1.2-7.7 1.8l-14.5 4.8c-10.9 3.7-5.8 2.1-9.7.7-4.5-1.7-5.3 3-5.7 4.7l-3.9.6-1.8-5.6c-.3-1.5-1.8-4.4-1.7-5.7.9-.9 4.8-2 6.4-2.2-1-.2-.1.1-.5-.3.6-.2 1-.3 1.7-.5l-.4-.4c-.6-.7-.8-1.5-1.1-2.3-.9-2.7-3.4-7.9-1.2-8.4l-.3.7zm-29.3-7.4c-.5 1.1-1.5 2.3-2.1 3.4-2 3.9-3.4 8.1-2.6 12.7 1.1 6.4 6.2 9.9 7.3 14.2C81.9 117.5 63.7 94 62.1 92l20.3-1.2zm95.9 10.8c1.1-1.6 5-4.2 7-5.6 4.9-3.3 12-6 18.2-7 1.9-.3 9-.7 11 0 .6.2.1 0 .4.3-1.3.5-4.3-.1-6 0-5.3.4-10.5.9-15.3 3.3.5.4 1.2.3 1.9.4 1 0 1 0 1.8.3 1.3.5 1.8 1 1.6 2.8-6.2 2.5-8 2.6-14.4 6.6l-4.3 2.7c-1.3-1-1.4-2-1.9-3.8zm-11-5.5c-.6-2.7-.9-5.5-.4-8.4.4-2.1 1.3-5.4 2.7-6.5.7.6.5.9 1 1.7.8-.5.8-1 1.2-1.7.2.4.4-.6.1.8l-.9 2.2c-1.5 5.2-1.2 6.3-.4 11.1l-3.3.8zm-70.4-5.6c1.2-2.1 5.4-5.8 7.8-7 1-.5 2.1-1.1 3.2-1.6 4-1.8 14.5-2.9 16.4-.6-.9.5-2.5-.2-3.7-.3-.7.4-.7.6-1.4 1l-4.4 2.6c-1 .6-2.2 1.1-3.1 1.7l-5.9 3.4c-.6.3-.9.4-1.6.8-3.3 1.8-6.1 3.5-7.3 0zm24.9 1.7c.6-3.2 2.5-6.6 4.2-9.2.3-.5.5-.8.8-1.3 0-.1.5-.7.5-.7.4-.4 0-.2.6-.4-.9 5.4-.6 8.5-.6 14 1.3-.1 3.1-1.3 4.1-1.9 1.4-.8 3.5-.6 5.2-.8 1.7-.2 8.6-1.6 9.9-2.1 1-.4.9-.6 2.1-1 .6-.2 1.4-.5 2.1-.8 4.3-1.7 8.9-3.9 13.9-1.9.6-1.5 1-3.5 2.2-4.4-.1 1-.9 2.3-1.2 3.5-2.1 7.2 0 9.9.2 11.9-3.1.3-8.3-.4-11 .2-2.3.5-9.5 3.2-10.5 3.4-.4.1-13.7.3-17.6 1-.5-1.8-1.2-3.6-1.8-5.4-.9-2.5-1.1-2.7-3.1-4.1zm132.2-13l-5.4 8.9c-1.1 1.8-15.8 25.6-16.5 26.1 0-9.6-1.9-17.4-5.4-25.9-.9-2.3-2.7-5.1-3.3-7l30.6-2.1zM95.3 88.9c-.4-1-.6-1.1.2-1.9.6-.6.9-.9 1.4-1.5 2.4-2.6 6.7-5.4 10.3-6.7 5-1.8 14.2-3.1 19.2-.5-.4 1.1-.5 1.1-1.7.8-5.7-1.4-10.9-1.3-16.5.7-3.7 1.3-9.2 4.9-11.4 7.8-1.1 1.2-.6 1-1.5 1.3zm40.1-10.5c.8-.3 2.1-1 2.9-1.5l7.4-5c-.6 1.6-1.3 2.2-2.3 3.3-1.5 1.7-7.7 6.6-9.5 7 0-1.6-.3-3.5.5-4.6.6.3.1 0 .5.4.5.4-.2-.1.5.4zm46.2 18c-.5.6-.5.4-1.1.9-.2.2-.8.7-.9.7-1.7.8-3.2-2-4.1-2.6-1.4-.8-.9-.2-1.9-1.4-.3.6-.3.6-1.6.8-2-8.1 2.8-17.7 8.1-19.3.6 2.9 9-1.7 13.8 1.1 4.1 2.3 5.6 9.5 6.1 10.2.8-2.2.9-5.1.1-7.5-1.2-3.4-3.3-4.2-3.8-5.2 4 .9 10.1.4 10.9 6.6.3 2.3-.4 3.3-.8 5.1h5.2c-.7-6.3-6.3-14.2-11.4-15.1-.8.7-.6 1.3-2.4 1.4-1.4.1-2.3-.2-2.6-1.3.9-.4 2.5-.6 3.7-.8 2.4-.4 3.4-.4 6.3 2.2.5.4.7.9 1.2 1.2 3.1 2.9 6.7 8.1 6.5 13.8-12.6-1.2-23.5 3.6-31.3 9.2zm-25.1-20.3c1.6-.7 3.8-2.3 5.3-3.3 7.3-4.7 16.8-7.5 25.9-8.1 4.4-.3 4.6-.1 8-.1 4.9-.1 9.2 1.1 12.4 4.4.6.6.5.5 1 1.2l3 3.5c6.6 8.9 11.3 17.6 13.6 28.9.6 3.1 1.9 12.6.6 15.3l-1.9-8.5c-.3-1.5-.2-3.1-.6-4.5-.5-2.1-1.8-5.4-2.9-7.2-.7-1.2-1.4-1.9-2.1-3-.8-1.2-.3-2.5-1-4-.7-1.4-1.5-1.9-2.1-2.9-.9-1.5.7-6.8-5.9-14.3-5-5.6-2.7-6.9-13.4-5-17.9 3.2-28.8 10.4-44 16.6-3.2 1.3-12.5 4.7-15.6 4.5L139 88c.9-.6 1.4-.8 2.5-1 6-1.5 10.7-3.8 16.2-6.2l19.5-10.1c-3.6.1-15.3 3.7-19.6 5.4-1 .5-1 0-1.1 0zM183.1 59c.1-1.4-2-3.5-2.9-4.6l-3.6-3.9c.9 0 2.2 1 3.1 1.3 1.9.6 7.1.6 10.6 2.6l5 3.9c.5.4.9.7 1.4 1 .7.6 3 2.4 3.4 3.2-8.2-.8-15.1-1.2-22.8.8-10.9 2.8-16.2 6.6-24.9 12.5-4.2 2.9-19.4 13.6-22.5 14.9l-.1-7.3c.3-.3 1.5-1 2-1.3.1-1.2 0-2.5.5-3.3l.7 6.5c2-.6 14.1-10.2 16.8-12 9.6-6.2 21.8-13.9 33.3-14.3zm-16.3-25.9c5.1 1.7 5-.7 7.5-.2 1 .2 1.4.4 2.5.5-.2 3 1.6 4.1-.4 5.5-1.4 1-1.9 3.2-2.2 5-1.4.4-2.7.6-4.1 1-1.1.3-3 1-3.8 1.1-2.7.3-4.9-1.6-6-3.8 1.3-.7 3-2.7 4.1-4 2.7-3.4 2.8-2.3 2.4-5.1zm-16.7-3.3l.4.9c.4 1.3 1.3 1.7 1.3 1.7s.1.1.2.1c-.9 4.8-3 4.5-5.6 7 0 2.3.3 2.9-.2 5.4 1.2-.5 2.3-2.9 7-5.5.7-.4 2.2-1 2.6-1.3l2.5-.9-1.7-7.1c1.7-.8 3.7-3 4.5-2.9.5.1 2.1 1 2.3 1.5.1.3 1.2 4.8.4 6.1-.2.3-1.3 2-1.5 2.2-.6.6-4.2 2.1-5.2 2.1-.6 3.9-.1 4-2 5.8l-5.9 5.4c-1.7 1.3-5.9 3.2-8 3.5-.6.5-1.4.6-2.2.6-.7.6-2.6 1.1-3.6.6-.5-.2-2-1.7-2.4-2.2-.2-1.5.2-2.5.5-3.8 1.7-.3.8.2 1.3-.3-.9-.9-1.7-1-2.2-1.3-.8-.6-.3-.2-.6-.7l-.4-.6c2.1-2.8 4.8-.7 7.5.6.3-2.6-1.9-2-3.4-3.5-1.8-.4-2.1-.6-4.1-.7.5-1.8 2.5-2.7 4.8-3.2l-.7-2.3c-.9-.3-.4-.4-1.5-.7.1.4.2.9.2 1.2.1 1.1.1.4-.1.6-3.4-.7-3.4.3-5.3.2-1.8-2.4-.8-1.8.3-4.5 1.4-3.4.9-3.6 2.8-3.9 1.7-.1 3.5 1.9 4.6 2.6.3-.3.1 0 .2-.6 0-.1-.1 0 0-.5 1.5 1.8 2 1.4 3 1.1.2-.4 1.8-1.3 2.3-1.7.4-.3.7-.5 1-1 .4-.6-.4-.2.9-.9 3.6-1.8 1.5-.1 6 .9zm-4.6-2.1c-2.1.2-4.2-.1-5.6-1.2 1.1.1 1.9.3 3 .4 1.6 0 2.1-.1 2.6.8zm-9.5-1c-.6.6-1.9 1.6-2.9 1.4-1.7-.4-1.1-3.4.9-4.2 2.6-1.1 3.5-1.6 3.8.2.3.9.8 1.7 1.6 2.1-2.9-.6-1.2-.1-3.4.5zm25.7-2c0-.1-.1-.1-.1-.1 1.7-1.4 5.3 1 5.9 1.8 1.1 1.4-.5 1.4 3.1 3.3.9.5.5-.1.9 1.1-1.7.9-3.8.3-5.3-.7-.6-1.7 0-2.5-1.4-3.7l-3.1-1.7zm-33.7-3c-.6-2.4-.8-1.5-.1-3.9.4-1.3.8-2.8 1.2-4.1.9-2.5 4.7-4.5 5.6-4.7.6.8 1.2 1.6 1.6 2.6-1.4.9-3.7 1-3.3 3.5.3 1.9 2.5 2 4 2.9-.2.5.1.1-.4.5-.5.5-1 .6-1.6.8-3.5 1.4-4.6 2.7-7 2.4zm45.3 7c-.5-.8-.7-.5-1.1-1.3l-.7-1.5c-.9.4-.6 1.1-.8.7l-.1.1c-.8-1.1-.8-1.7-1.8-2.5-4.8-3.8-6.1-2.4-9.2-1.5-2.2-2.4-4.1-3.8-7.3-4.3-.6-1.4-1.2-5.8-5.5-7.3.1-2.5-.3-1.9-1.2-3.4 8-.6 3.2-1.2 12.1.2 3.9.6 4.8.9 8.4 1.7 1.2.3 1.7.4 1.8 1.5.1 2.1-1.6 3.1-3.8 2.4-.6-.2-1.9-1-2.2-.4-.5.9 3 3.9 6.8 3 2.4-.6 3.1-2.5 3.6-3.1 1.6 1.6 3.5 2.8 4.9 4.5 1.7 2.3-1.5 2.2 1.1 7.3 1.2 2.4 1.1 5.7-2.1 5.9-2.2 0-2.1-.8-2.9-2zm-32.2-15c-1.2-1-2.2-2.7-3.2-4.3-.9-1.5-3-4-3.2-4.5 4.4 1.2 7.4 2 9.3 6.3.7 1.6.3 1.2 1.8 2.1 1 .6 1.4.9 2.1 1.7 2.1 2.1 1.3 2.7 1.9 5.8 2.5 0 3.7 0 5.4 1.3 1.1.8 2.7 2.3 3.3 3.4-3.6 3.5-4 2.3-5.2 2.1-.8-.2-1.1.1-2.2 0-2.1-.3-5.5-2.8-7.1-4 1.6-.5 1.6-.9 3.7-.9-.8-1.2-1.1-.8-2.1-1.8-1.6-1.7-2.2-1-4-2.3-4.7-3.4-.4-.9-6.1-3.8 1.4-1.1 4-1.6 5.6-1.1zM176.8 47c.5-1.1.9-1 1.2-2.4.9-4 1.6-2.3 2.6-4.6 1.7-3.7-1.4-5.7.9-8.4 1.2-1.3 1.4-3.9 1-6-.4-2.2-2-2.9-1.4-5.4.6-2.6-.1-3.7-1.4-5.2-.3-.4-.6-.8-.8-1.1-.3-.3-.6-.5-.9-.7-2.1-1.7-3.5-4.3-6.9-3.9-1.2-3.3-4.7-3.4-8.6-4.4-1.9-.5-9.4-1.7-11.2-1.6-2.6.1-9.5 1.4-11.5.8-3-1-8-3.7-7.7 1.8-1.4.5-2.7 1.6-4 2.5-2 1.4-2.7 4-3.4 6.7-.8 2.8-1.8 3.5-.7 6.9.8 2.5 1.5 3.3 4.6 3.6l.6 2.6c-1 1.7-1 1.2-1.7 3.4-.9 2.8-2.3 4.6-1.5 7.5.5 1.6 1.7 1.1 3.1 1.6-.2.9-.6.9-.4 1.8.2 1 .7.4.3 1.6-.5 1.7-1.4.8-.2 3.1 2.8 4.9.6 2.6.7 7 1.1.6 1.3 1 2.2 1.9 2.6 2.3 1.7 1.9 5.3 1.9 1.5 3.7-1.2 11-4 13.3-1.5 1.2-3 3.4-5.9 2.6-3-.8-4.1-1.1-7.4-1.5-9-1-19.9 2.6-25.6 9.1-.8-.4-.6-.7-1.3-1.2-1.5.7-1.7 2.2-4.1 2.4-1.7.1-3.7.2-5.7.3-11.9.8-23.9 2-35.8 2.4 1 2.1 6.5 8.4 8.3 10.8l20.9 26.6c.8 1 1.4 1.8 2.1 2.7.8 1.1 1.4 1.6 2 2.8-1.4.2-3.9 1.6-5.4 1.3-1.9-.3-1.8-2.2-4.8-1.7-7.8 1.4-6.7 4.3-8 5-.7.4-4 1.3-4.9 1.6-2 .7-5.5 1.3-7 2.9-.8.9-.1.9-1.6 1.5-2.3 1-1.7 1.6-2.9 3.7-2.4.9-5.1 1.1-6 3.2-1.3 2.8.6 4.7 1 7.3-2.7-.3-8.1.2-10.6.8-3.4.7-1.9 2.1-6.6 2.1-1.4 0-1-.1-1.9-.7-2.5-1.6-11.8-.9-15.2.1-1 .3-1.1.6-1.8 1.1-.9.7-1 .4-1.7.9 0 .1-.8 4.4-.8 4.5.1 2 2.1 10.3 2.6 12.6 3.5 16.7 6.9 33.5 10.7 50 1.3.1 1.6-.1 2.9.3.8.2 1.6.5 2.3.6 2.5.4 14-.6 16.1-1.2 1.1-.3 1.1-.6 2-.8 3.3-.7 4.9.7 7.8.6 7.3-.2 14.8-.8 22.1-1.2 2.5-.1 2.5-.7 5.1-.3 2.3.4 8.3-.2 10.6-.8 1.3-.4 1-.6 1.9-1 2.5-1 4.4.7 7.1.8 1.5.1 3.9-.2 5.4-.3 2.1-.1 3.4-.2 5.4-.6 1.4-.3 3.4.1 5.2-.1 3.3-.2 7.4 0 9.9-1.6 3.2-2 6.8.6 9.7.5 3.6-.1 7.3-.4 10.9-.6 4.2-.2 5.1-1.7 6.7-1.9 3.1-.4 3.9.5 5.7 2.9.9 1.1 1.7 2.1 2.5 3.2l7.6 9.7c.4.6.8 1 1.3 1.6.2.3.3.4.6.8 0 0 .3.4.4.4.3.3 0 .1.4.3l11.9-19.2c8.4-.3 12.5-2.7 16.4-2.4 2.2.1 1.4 1.5 8.2 1.1 2.7-.1 5.7-.1 8.1-1 1.6-.6 1-1.2 3.4-1.3 3-.2 1.8.2 3.8.8 3.2.9 13.8.3 17.1-.5 1.7-.4 1.8-.7 3.1-1.4.5-.3 1.4-.4 2.1-.4 2.4.1.6 1.6 10.1 1.1 2.7-.2 5.6-.3 7.7-1.7 2.1-1.4 5.3 0 7.7.6 4.8 1.1 11.3.5 15.6-1.8 3.2-1.7 3.7.1 6.9.7 1.4.2 7.4-.2 9-.4 4.1-.5 4.1-2.1 6.9-2.2-.1-2.1-.1-2.3.3-4.2.4-2.2-2.5-48.4-2.9-54.9-.2-2.9-.7-5.1-.8-8-1.7 0-1.4.2-2.6-.7-2.4-1.8-11.1-1.1-14-.4-2.8.7-2.4 1.1-4.1 2.2-1.1-.1-2.1-.8-3.3-1.1-1.1-.3-2.2-.5-3.3-.8-4.3-.9-10.1-.2-14.1 1.7-.7.3-2.2 1.3-2.6 1.4-1.6.4-1.7-.5-2.8-1.1-3.6-1.8-11 .1-15.1 0-12-.3-11.5 2.5-13.5 2.9.4-1.4 1.8-3.5 2.5-5 2-4.6.7-1.8 2.9-4.6 1.9-2.4.5-3.7 1.5-5.4.9-1.6 1.9-3 2.9-4.6L257 88.7c1.2-2 10.7-16.6 11.3-18.4l-49.7 3.3c-.8-.8-1.2-1.5-1.9-2.4-.8-.9-1.3-1.5-1.9-2.4-1.5-1.9-4.5-5.2-6.5-6.5-1.3-.8-1.4-.7-2.6-1.7l-6.9-6.1c-5.4-4.4-6.8-6-14.4-7.2-2.7-.2-6.7-.2-7.6-.3zm-3.9 113.9l2.3 40.8c5.6-.1 9.6.2 9.1-6.2-.3-4.9-.4-10-.8-14.8-.4-4.7-.6-9.8-.8-14.5-.2-7-3.9-5.5-9.8-5.3zm-51.5-65.5c.2 1.1.6 1.3.4 2.6-1.4.7-8.4 3.1-9.7 2.9 0 0-1.2-2.8-.4-2.7l.2-.7c-2.2.5.3 5.7 1.2 8.4.3.8.5 1.7 1.1 2.3l.4.4c-.7.1-1.1.3-1.7.5.3.3-.5.1.5.3.1 0 5.7-1.3 6.8-1.6 1.2-.4 1.9-.7 3.1-1.2.9-.4 2-1.2 2.8-1.3-.6-.1-.6-.3-1.2.1 0-1.8-1.5-7.4-2.4-9.2-.4-.7-.6-.7-.9-.9l-.2.1zM71.7 143c1.3.1 24.6-7.7 27.3-8.7l-.4-2.8c-1.5-.3-20.3 6.3-23.4 7.3-6.1 2-4.6 1.5-3.8 3.4.3.7-.2 0 .3.8zm1.7 3.6c-.7.5-.5 0-.5.7 1.2.6 11.8-3.3 13.7-4 4.5-1.5 9.3-2.8 13.7-4.6l-.1-1.8c-.2-2-2.7-.5-5.8.5l-20.6 6.7c-2.9 1-1.5 2.2-.4 2.5zM207.5 97c2.3 1.4 3.4 2.4 4.8 4.4 2.9 4.2-1.5 5.1-2.1 5.7 2.6 1.1 3.5.6 5.1 2.7 3.4 4.5-.9 11.3-4.5 15-.5.5-.7.6-.9 1.1 3.2-1.4 4.6-3.3 5.5-3.8-.4 4-4.6 8-7.2 9.3.6 4.5.4 6-.6 10.3 1.8.5 5.4-.6 7.2-1.3 1.7-.7 1.5-.6 1.9-1.3-1.5.2-5 .6-6.1-.5 1.8-.6 3.4-1.7 4.9-2.5 3.4-1.9 3.9-1.5 6.8-4.2 1-.9 1-1.1 1-2.7 0-2.1.2-5.5 0-7.6-1 .2-2.3 2.1-3.8 2.4.2-2 1-3 1.2-9.5.3-6.6.9-12.2-3.9-17.6-1.5-1.7-3.9-.9-7-.5-.8.1-1.9.2-2.3.6z"/><path id="path20" class="st5" d="M172.8 183.9l-6.5.3c-.3 1.6 1.1 21.4 1.2 25 4 0 8.4-.4 12.5-.6 8.4-.5 12.5-4 12.1-13.6-.1-2-.4-10.8-.8-12.1l-6.4.4c.1 9.6 3.4 19.1-5.1 19.5-7.1.3-6 1-6.3-6.6-.1-4.1-.6-8.2-.7-12.3zm107.8 15.3c2.4-3.9 2.1-13.1 1.3-15.4l-6 .4c0 3 .9 8 0 10.5-1 2.8-4.4 4.4-7.9 3.1-3.1-1.2-3.4-4.1-3.6-7.9-.1-3.7-.4-7.4-.6-11.2l-6.6.4c.1 4 .4 13 1.2 16.4 1.2 4.7 4.1 7.9 9.3 8.4 6.1.7 10.6-1.1 12.9-4.7zm-151.3 12.2l11.5-.6 2.5-25.3c-1.4.1-4.5 0-5.7.5l-1.3 14c-.1 1.3-.4 3.7-2.1 2.5-1-.7-2.6-14.2-3.8-16.3l-6.3.4 5.2 24.8zm99.6-30.7c-.4 1.1-1.2 11.2-1.4 13.8-.1 1.7-.1 3.2-2 3-1.7-1.6-2.4-13.2-3.9-16.3l-6.1.3c-.2.7 4.5 23.6 5.1 24.8l11.2-.6 2.5-25.2-5.4.2zM33.4 216.6c.6-1.5 2.2-21.5 2.6-25l-5.6.4c-.3 2.9-.9 14.9-1.9 16.6l-1.6-.1c-.7-1.6-3.1-13.7-3.4-16.2l-6.5.4 5.2 24.7 11.2-.8zM45.9 191l1.3 25 22.1-1.2-.3-5.8c-2.7.1-13.5 1.1-15.2.5-.7-.6-1.1-12.3-1.2-14.6-.1-3.3-.5-2.8.7-4.4l-7.4.5zm48.7-2.8c0 1.5.7 4.6-1.3 4.2-1.1-.2-1.5-2.7-1.9-4l-4.9.2 6 18.5c.6 1.8 1.1 4.6 2.2 6.1l6.9-.4-1.4-24.8c-1.2-.3-4.1.2-5.6.2zm150.7 16.5c1.5.4 4.8-.2 6.5-.2.2-1.3-1.1-24-1.4-25l-6.5.4 1.4 24.8zM153.1 185c-.3 2.1.4 9.8.6 12.4.3 4.1.3 8.5.7 12.6l6.6-.3-1.4-25-6.5.3zm46.3 22.5l6.6-.4-1.4-25-6.6.3 1.4 25.1zm-92.4-20l1.3 25 6.6-.3-1.4-25-6.5.3zm181-10.1l1.3 25 6.5-.4-1.3-24.9-6.5.3zm-213.9 12l1.4 25 5.6-.3c.3-1.9-.4-10.1-.6-12.4-.3-4.1-.4-8.4-.7-12.6l-5.7.3z"/></g></svg>